<svg xmlns="http://www.w3.org/2000/svg" viewBox="0 0 300 600"><defs><style>.cls-1{fill:none;}.cls-2{fill:#fff;}</style></defs><g id="Layer_2" data-name="Layer 2"><g id="bg"><rect class="cls-1" width="300" height="600"/></g><g id="inclass"><path class="cls-2" d="M143.47,433.014h4.372v18.894H143.47Z"/><path class="cls-2" d="M151.785,433.014h4.481l6.559,12.227V433.014h4.184v18.894h-4.481l-6.559-12.227v12.227h-4.184Z"/><path class="cls-2" d="M176.679,442.461c0-5.8,3.941-9.987,10.149-9.987,5.534,0,9.124,2.942,9.637,7.4h-4.643c-.486-2.132-2.267-3.481-4.967-3.481-3.563,0-5.614,2.375-5.614,6.073s2.051,6.073,5.614,6.073c2.7,0,4.481-1.349,4.967-3.482h4.643c-.513,4.454-4.1,7.4-9.637,7.4C180.62,452.448,176.679,448.265,176.679,442.461Z"/><path class="cls-2" d="M199.2,433.014h4.372v15.007h7.019v3.887H199.2Z"/><path class="cls-2" d="M224.114,449.614H217.42l-.648,2.294h-4.616l6.4-18.894h4.4l6.424,18.894h-4.615Zm-.971-3.428-2.375-8.395-2.376,8.395Z"/><path class="cls-2" d="M230.544,445.727h4.373c0,2.051,1.16,3.266,3.077,3.266,1.619,0,2.537-.756,2.537-2.079,0-1.16-.593-1.754-2.3-2.429l-3.4-1.323c-2.538-.944-3.833-2.7-3.833-5.155,0-3.32,2.618-5.533,6.721-5.533,4.157,0,6.91,2.347,6.91,5.992h-4.373a2.408,2.408,0,0,0-2.618-2.727c-1.431,0-2.268.73-2.268,1.863,0,1.052.729,1.7,2.592,2.457L241.1,441.3c2.618,1.026,3.806,2.78,3.806,5.317,0,3.536-2.754,5.831-6.937,5.831C233.324,452.448,230.544,449.965,230.544,445.727Z"/><path class="cls-2" d="M246.5,445.727h4.373c0,2.051,1.16,3.266,3.077,3.266,1.619,0,2.537-.756,2.537-2.079,0-1.16-.593-1.754-2.295-2.429l-3.4-1.323c-2.538-.944-3.833-2.7-3.833-5.155,0-3.32,2.618-5.533,6.721-5.533,4.157,0,6.91,2.347,6.91,5.992h-4.373a2.408,2.408,0,0,0-2.618-2.727c-1.431,0-2.268.73-2.268,1.863,0,1.052.73,1.7,2.592,2.457l3.131,1.241c2.618,1.026,3.806,2.78,3.806,5.317,0,3.536-2.754,5.831-6.937,5.831C249.281,452.448,246.5,449.965,246.5,445.727Z"/><path class="cls-2" d="M263.375,449.533a2.672,2.672,0,1,1,2.672,2.645A2.637,2.637,0,0,1,263.375,449.533Z"/></g></g></svg>